Coordinates
version=1
nRows=19
nColumns=36
inDegrees=yes

Units are S.I. units (second, meters, Newtons, ...)
If the header above contains a line with 'inDegrees', this indicates whether rotational values are in degrees (yes) or radians (no).

endheader
time	pelvis_tilt	pelvis_list	pelvis_rotation	pelvis_tx	pelvis_ty	pelvis_tz	hip_flexion_r	hip_adduction_r	hip_rotation_r	knee_angle_r	knee_angle_r_beta	ankle_angle_r	subtalar_angle_r	mtp_angle_r	hip_flexion_l	hip_adduction_l	hip_rotation_l	knee_angle_l	knee_angle_l_beta	ankle_angle_l	subtalar_angle_l	mtp_angle_l	lumbar_extension	lumbar_bending	lumbar_rotation	arm_flex_r	arm_add_r	arm_rot_r	elbow_flex_r	pro_sup_r	arm_flex_l	arm_add_l	arm_rot_l	elbow_flex_l	pro_sup_l
     15.00000000	     -0.10569084	      1.38960569	     -0.98300289	      0.44459480	      1.05796242	      0.85417609	     24.74627210	     -2.16922345	      0.71703114	     44.48174735	      0.77635295	      1.12664771	    -11.31005683	     -7.49999987	      6.61678049	      2.59560834	     -1.62765992	     17.14813685	      0.29929145	     11.59719381	     -2.17681454	     -7.49999987	    -18.53135090	      2.11883970	      0.69116909	      5.59738539	    -10.36200131	     -6.08397215	     21.85332745	     76.78636105	     13.60732154	    -11.65827089	     -5.52278176	     37.83898112	     75.93621780
     15.01666670	      0.14467421	      1.30847666	     -1.47666439	      0.44251015	      1.06030749	      0.85554488	     24.68848240	     -1.74732402	      0.75608600	     39.16556748	      0.68356811	      2.06215407	     -9.42385323	     -7.49999987	      5.05267683	      2.59979587	     -1.87712299	     16.17094574	      0.28223625	     11.73639053	     -2.15829401	     -7.49999987	    -19.00265868	      2.17327345	      0.68938490	      5.31626336	    -10.14112223	     -6.41237066	     22.08505468	     76.84552025	     14.13884753	    -11.96525973	     -6.32346938	     38.96416269	     75.78939573
     15.03333330	      0.42109886	      1.34189486	     -1.86402475	      0.44000369	      1.06137110	      0.85515330	     24.58721308	     -1.54852539	      0.81145170	     33.81997522	      0.59026992	      2.86432098	     -7.31611991	     -7.49999987	      3.39821867	      2.74563151	     -2.02890561	     15.05457758	      0.26275195	     11.83548703	     -2.16402182	     -7.49999987	    -19.52580864	      2.12085990	      0.57538393	      5.01187020	     -9.90274714	     -6.82744597	     22.12839667	     77.23654751	     14.66156922	    -12.23697888	     -7.15530181	     39.88823974	     75.90974075
     15.05000000	      0.57611801	      1.53351608	     -2.19176314	      0.43690654	      1.06037930	      0.85360853	     24.71304567	     -1.62087667	      0.93146213	     28.72602969	      0.50136380	      3.60448115	     -5.03895395	     -7.49999987	      1.80609086	      3.11567180	     -1.94003176	     14.02209730	      0.24473177	     12.10403927	     -2.22564197	     -7.49999987	    -19.83097048	      1.96879887	      0.25196318	      4.88340973	     -9.73260341	     -7.18150287	     21.55096647	     77.54611757	     15.10680470	    -12.47404241	     -8.01934093	     40.59675008	     75.91214817
     15.06666670	      0.75285325	      1.54418801	     -2.55653029	      0.43490391	      1.05906498	      0.85267108	     24.76567048	     -1.57290487	      0.95461577	     23.86373783	      0.41650080	      4.13263256	     -2.99646959	     -7.49999987	      0.03165088	      3.33846804	     -1.61490135	     13.15546464	      0.22960617	     12.79652844	     -2.00113170	     -7.49999987	    -20.07112916	      2.00123390	     -0.09385476	      4.60767805	     -9.56795286	     -7.50432217	     21.34951701	     77.83627952	     15.45572746	    -12.64515423	     -8.72512364	     41.22899207	     75.90197147
     15.08333330	      0.87958088	      1.57863552	     -2.93039376	      0.43412430	      1.05777597	      0.85310511	     24.80461049	     -1.61495603	      0.79862002	     19.34788016	      0.33768421	      4.41394508	     -1.16993505	     -7.49999987	     -1.76923227	      3.65812481	     -0.92832720	     12.48931195	      0.21797961	     13.49108195	     -1.69964830	     -7.49999987	    -20.07571221	      2.07180329	     -0.41118277	      4.48491296	     -9.54282203	     -7.82135248	     20.61338699	     77.84294339	     15.82637062	    -12.74401215	     -9.11046308	     41.54600629	     75.63432848
     15.10000000	      0.94759066	      1.54409445	     -3.27318788	      0.43319412	      1.05584624	      0.85497993	     24.90725025	     -1.58117390	      0.39488536	     15.28808560	      0.26682743	      4.68951793	      0.45086335	     -7.49999987	     -3.54636227	      3.91520320	     -0.08412180	     11.86082059	      0.20701037	     14.12746934	     -1.09838447	     -7.49999987	    -19.94902884	      2.20697812	     -0.78790980	      4.50611230	     -9.51881986	     -8.04603896	     19.70547195	     77.65362589	     16.08512773	    -12.86883864	     -9.39810683	     41.94276161	     75.17214990
     15.11666670	      0.91043445	      1.56119564	     -3.64908488	      0.43153456	      1.05222658	      0.85749451	     25.31157902	     -1.47567812	      0.11015968	     11.87133065	      0.20719381	      5.09739536	      1.79765344	     -7.49999987	     -5.11428848	      4.20053341	      0.76976249	     11.21664796	      0.19576744	     14.37606827	     -0.67200040	     -7.49999987	    -19.73317191	      2.24788944	     -1.17959736	      4.58481932	     -9.47500163	     -8.10607051	     18.99497273	     77.46405978	     16.29507131	    -13.03473398	     -9.65349630	     42.34017658	     74.63108195
     15.13333330	      0.80269959	      1.48641991	     -3.93965718	      0.42988864	      1.04726366	      0.85957794	     25.95832860	     -1.21751071	     -0.29290053	      9.18504165	      0.16030922	      5.72555615	      3.32909698	     -7.49999987	     -6.39698535	      4.28849413	      1.36075294	     10.72091646	      0.18711529	     14.44880527	     -0.18887205	     -7.49999987	    -19.55192203	      2.40959878	     -1.35015025	      4.52701182	     -9.45864701	     -8.74928641	     18.65682735	     78.10848796	     16.53713405	    -13.11116338	     -9.84856145	     42.80416492	     74.93595572
     15.15000000	      0.58610730	      1.34945000	     -4.22613258	      0.42810267	      1.04257963	      0.86136885	     26.88535104	     -0.79988018	     -0.46865760	      7.44574802	      0.12995282	      6.30987387	      4.61583899	     -7.49999987	     -7.31749841	      4.23058570	      1.71096781	     10.47903591	      0.18289368	     14.49289062	     -0.02396156	     -7.49999987	    -19.26037607	      2.63522999	     -1.35052071	      4.45779417	     -9.44891123	     -9.40909141	     18.33448191	     78.55839782	     16.70452609	    -13.07657798	     -9.98922499	     43.20464145	     74.92460897
     15.16666670	      0.44781580	      1.14036865	     -4.45773173	      0.42607978	      1.03883143	      0.86296263	     27.85590731	     -0.32231794	     -0.63876323	      6.74502248	      0.11772285	      6.71045689	      5.53866972	     -7.49999987	     -8.08481922	      4.03073115	      1.70550956	     10.61469336	      0.18526135	     14.98644586	      0.19159117	     -7.49999987	    -19.06076116	      2.94213522	     -1.22447467	      4.36089802	     -9.42821218	    -10.25335584	     18.22076957	     78.60880846	     16.81601681	    -12.94424169	     -9.82989404	     43.41287457	     74.84504154
     15.18333330	      0.33902837	      0.80154002	     -4.59907129	      0.42403320	      1.03586725	      0.86440409	     28.87194112	      0.24107180	     -0.82445219	      7.17002161	      0.12514048	      6.79015566	      5.52327263	     -7.49999987	     -8.68675046	      3.61186985	      1.54430202	     11.05125086	      0.19288071	     15.39663106	      0.05607695	     -7.49999987	    -18.98862646	      3.29347704	     -1.18806094	      4.39097934	     -9.44975555	    -10.31970683	     18.32224891	     78.59744929	     16.80717154	    -12.79034410	     -9.77529498	     43.55439350	     74.82240830
     15.20000000	      0.19565389	      0.12100713	     -4.62670243	      0.42225883	      1.03241518	      0.86566232	     29.76944959	      1.02960953	     -1.49677354	      8.48380092	      0.14807026	      6.61548377	      4.97324284	     -7.49999987	     -9.07423884	      2.69817781	      0.84450733	     11.94560728	      0.20849018	     15.63887011	      0.22592808	     -7.49999987	    -19.01117504	      4.05902426	     -0.95245555	      4.54985675	     -9.52648020	    -10.48241606	     18.09152594	     78.71803760	     16.67818531	    -12.39760126	     -9.60634377	     43.72950432	     74.86087162
     15.21666670	     -0.03185523	     -0.50876880	     -4.65556576	      0.42017340	      1.03041632	      0.86709201	     30.64272288	      1.79973844	     -1.86165179	     10.68878369	      0.18655447	      5.67407998	      2.98534146	     -7.49999987	     -9.26998219	      1.70910887	     -0.25426696	     13.11579514	      0.22891381	     15.21183385	      0.36934581	     -7.49999987	    -18.99381864	      4.68062793	     -0.77890061	      4.90501272	     -9.58061165	    -10.46671128	     17.81391398	     78.25177269	     16.48529761	    -12.11366366	     -9.00940939	     43.63326421	     74.02730419
     15.23333330	     -0.04813114	     -1.14124475	     -4.58378706	      0.41908470	      1.02966939	      0.86754406	     30.99365101	      2.51649950	     -2.06487449	     13.21167536	      0.23058723	      3.85720725	      0.23455002	     -7.49999987	     -9.76298205	      0.69080295	     -1.16050149	     14.29732622	      0.24953542	     13.56959953	     -0.45164381	     -7.49999987	    -19.22781673	      5.27829164	     -0.58018149	      5.19796510	     -9.74648263	    -10.00018927	     17.81697045	     78.39008020	     16.34168977	    -11.72784032	     -8.45834479	     43.30186686	     73.72674955
     15.25000000	      0.12220916	     -1.66243727	     -4.36526672	      0.41990517	      1.02850609	      0.86697523	     30.85528528	      3.01382536	     -2.20025560	     15.65729305	      0.27327132	      1.44886084	     -2.61283518	     -7.49999987	    -10.53256971	     -0.24352659	     -2.04984092	     15.44680787	      0.26959766	     10.84144194	     -1.73902663	     -7.49999987	    -19.50015654	      5.75231544	     -0.44983051	      5.45011948	     -9.87083549	     -9.75947653	     17.68366289	     78.25393713	     16.27432431	    -11.28545445	     -7.91724726	     42.62019481	     73.43952764
     15.26666670	      0.43917241	     -2.04393574	     -4.12600032	      0.42215623	      1.02566985	      0.86714405	     30.33162487	      3.35185771	     -2.12821298	     17.80111674	      0.31068810	     -1.16373210	     -5.38699467	     -7.49999987	    -11.48259867	     -1.04591764	     -3.12336092	     16.64518286	      0.29051325	      6.92648590	     -3.50251342	     -7.49999987	    -19.68657884	      6.05601031	     -0.32768154	      5.46407167	     -9.97938002	     -9.60690111	     17.81122660	     78.18422907	     16.19520833	    -10.82851570	     -7.35266133	     41.72487918	     73.36348737
     15.28333330	      0.64397781	     -2.25680476	     -3.84989608	      0.42339947	      1.02283894	      0.86932773	     29.80966806	      3.53550538	     -2.01047270	     19.59308925	      0.34196392	     -3.40842839	     -7.82515399	     -7.49999987	    -12.19546559	     -1.73189189	     -4.25539586	     18.00104614	      0.31417752	      1.85153659	     -5.75802207	     -7.49999987	    -19.62811260	      6.14393365	     -0.07922097	      5.30081489	     -9.98971702	     -9.68430808	     17.91134866	     78.53535298	     16.19847632	    -10.42793819	     -6.65061001	     40.59389197	     73.84332852
     15.30000000	      0.99128020	     -2.62029244	     -3.43066305	      0.42295465	      1.02079224	      0.87247893	     29.01168747	      3.82545548	     -2.17594640	     20.92805496	      0.36526347	     -4.95308660	     -9.82620746	     -7.49999987	    -12.78839906	     -2.67670913	     -5.56249019	     19.60163748	      0.34211311	     -3.70782153	     -7.56366075	     -7.49999987	    -19.93445222	      6.42387014	      0.48852753	      5.06952394	    -10.03185325	    -10.34029031	     18.22291250	     78.99283627	     16.41091266	     -9.91007641	     -6.05203187	     39.56410444	     74.56450856
